<svg width="25" height="14" viewBox="0 0 25 14" fill="none" xmlns="http://www.w3.org/2000/svg">
<path fill-rule="evenodd" clip-rule="evenodd" d="M24.5 7C24.5 6.72386 24.2761 6.5 24 6.5H1C0.723858 6.5 0.5 6.72386 0.5 7C0.5 7.27614 0.723858 7.5 1 7.5H24C24.2761 7.5 24.5 7.27614 24.5 7Z" fill="#C85752"/>
<path fill-rule="evenodd" clip-rule="evenodd" d="M7.35355 0.646447C7.15829 0.451184 6.84171 0.451184 6.64645 0.646447L0.292893 7L6.64645 13.3536C6.84171 13.5488 7.15829 13.5488 7.35355 13.3536C7.54882 13.1583 7.54882 12.8417 7.35355 12.6464L1.70711 7L7.35355 1.35355C7.54882 1.15829 7.54882 0.841709 7.35355 0.646447Z" fill="#C85752"/>
</svg>
