<svg width="100" height="55" viewBox="0 0 100 55" fill="none" xmlns="http://www.w3.org/2000/svg">
<path d="M6.84282 13.5526C7.95395 13.5526 8.79827 13.3385 9.37538 12.9088C9.95331 12.4796 10.2425 11.8574 10.2425 11.0425C10.2425 9.44289 9.10899 8.6429 6.84282 8.6429H2.84327V13.5526H6.84282ZM0 0.222046H12.1084V2.59965H2.84327V6.42106H7.44272C9.30909 6.42106 10.7276 6.81008 11.6975 7.5877C12.6677 8.36574 13.1525 9.48722 13.1525 10.9534C13.1525 12.4941 12.6197 13.6827 11.5529 14.5192C10.4865 15.3565 8.96813 15.7745 6.99818 15.7745H0V0.222046Z" fill="#101010"/>
<path d="M25.5496 9.90897L22.6168 3.11047L19.7064 9.90897H25.5496ZM26.5053 12.1751H18.7287L17.1958 15.7745H14.2188L21.2169 0.222046H24.061L31.0816 15.7745H28.0602L26.5053 12.1751Z" fill="#101010"/>
<path d="M46.8563 0.222046V15.7745H44.0127V2.66594H37.8807L37.7469 6.55447C37.6732 8.73197 37.495 10.4977 37.2142 11.8536C36.9324 13.2084 36.4809 14.2379 35.8586 14.9418C35.2368 15.6452 34.3771 15.9965 33.2817 15.9965C32.896 15.9965 32.3703 15.9224 31.7041 15.7745L31.9042 13.2643C32.0964 13.3231 32.3189 13.353 32.5708 13.353C33.4739 13.353 34.1144 12.8165 34.4923 11.7426C34.8705 10.6684 35.1033 8.97599 35.192 6.66549L35.4141 0.222046H46.8563Z" fill="#101010"/>
<path d="M60.5861 9.90897L57.6534 3.11047L54.743 9.90897H60.5861ZM61.5411 12.1751H53.7657L52.232 15.7745H49.2549L56.2539 0.222046H59.0972L66.1181 15.7745H63.0967L61.5411 12.1751Z" fill="#101010"/>
<path d="M82.3146 0.222046V15.7745H79.4262V9.10939H71.3831V15.7745H68.4951V0.222046H71.3831V6.64312H79.4262V0.222046H82.3146Z" fill="#101010"/>
<path d="M89.5689 14.9633C88.3024 14.2752 87.3102 13.3231 86.5918 12.1084C85.873 10.8946 85.5146 9.52411 85.5146 7.99869C85.5146 6.47328 85.8772 5.10322 86.6026 3.88811C87.3284 2.67424 88.3248 1.7222 89.5908 1.03324C90.8577 0.345103 92.2759 0 93.8456 0C95.1195 0 96.2825 0.222059 97.3339 0.666592C98.3854 1.11071 99.274 1.75576 99.9999 2.59925L98.1339 4.35501C97.0079 3.14032 95.6229 2.53338 93.9794 2.53338C92.9126 2.53338 91.9569 2.76663 91.1129 3.2327C90.269 3.69961 89.6095 4.34797 89.1355 5.17696C88.6612 6.00637 88.4246 6.94722 88.4246 7.99869C88.4246 9.05016 88.6612 9.99101 89.1355 10.8204C89.6095 11.6494 90.269 12.2978 91.1129 12.7639C91.9569 13.2312 92.9126 13.464 93.9794 13.464C95.6229 13.464 97.0079 12.85 98.1339 11.6196L99.9999 13.3973C99.274 14.2416 98.3817 14.8858 97.3227 15.33C96.2634 15.7745 95.0976 15.9966 93.8241 15.9966C92.2531 15.9966 90.8354 15.6523 89.5689 14.9633Z" fill="#101010"/>
<path d="M7.62939e-06 23.5275H100V25.8396H7.62939e-06V23.5275Z" fill="#E87F7B"/>
<path d="M61.6787 42.3657C61.6787 48.8153 56.45 54.0441 50.0003 54.0441C43.5506 54.0441 38.3219 48.8153 38.3219 42.3657C38.3219 35.916 43.5506 30.6872 50.0003 30.6872C56.45 30.6872 61.6787 35.916 61.6787 42.3657Z" fill="#E97772"/>
</svg>
