<svg width="80" height="44" viewBox="0 0 80 44" fill="none" xmlns="http://www.w3.org/2000/svg">
<path d="M5.47426 10.8421C6.36316 10.8421 7.03862 10.6707 7.5003 10.327C7.96265 9.98368 8.19399 9.48587 8.19399 8.83395C8.19399 7.55429 7.28719 6.91429 5.47426 6.91429H2.27462V10.8421H5.47426ZM0 0.177612H9.68676V2.0797H2.27462V5.13683H5.95417C7.44727 5.13683 8.5821 5.44804 9.35798 6.07014C10.1342 6.69257 10.522 7.58975 10.522 8.76269C10.522 9.99528 10.0957 10.9462 9.24231 11.6153C8.3892 12.2851 7.1745 12.6196 5.59855 12.6196H0V0.177612Z" fill="#101010"/>
<path d="M20.4397 7.92715L18.0935 2.48835L15.7651 7.92715H20.4397ZM21.2043 9.74008H14.983L13.7567 12.6196H11.375L16.9735 0.177612H19.2488L24.8653 12.6196H22.4481L21.2043 9.74008Z" fill="#101010"/>
<path d="M37.4831 0.177612V12.6196H35.2082V2.13273H30.3026L30.1956 5.24355C30.1366 6.98555 29.9941 8.39811 29.7694 9.48289C29.544 10.5667 29.1827 11.3903 28.6849 11.9534C28.1874 12.5162 27.4997 12.7972 26.6234 12.7972C26.3149 12.7972 25.8943 12.7379 25.3613 12.6196L25.5214 10.6114C25.6752 10.6585 25.8532 10.6823 26.0547 10.6823C26.7772 10.6823 27.2896 10.2531 27.5919 9.39407C27.8945 8.53466 28.0807 7.18077 28.1517 5.33237L28.3293 0.177612H37.4831Z" fill="#101010"/>
<path d="M48.4703 7.92715L46.1241 2.48835L43.7957 7.92715H48.4703ZM49.2342 9.74008H43.0139L41.7869 12.6196H39.4053L45.0045 0.177612H47.2791L52.8959 12.6196H50.4787L49.2342 9.74008Z" fill="#101010"/>
<path d="M65.8524 0.177612V12.6196H63.5417V7.28749H57.1073V12.6196H54.7969V0.177612H57.1073V5.31447H63.5417V0.177612H65.8524Z" fill="#101010"/>
<path d="M71.6565 11.9707C70.6433 11.4201 69.8495 10.6585 69.2748 9.68676C68.6998 8.71566 68.4131 7.61928 68.4131 6.39895C68.4131 5.17862 68.7031 4.08258 69.2834 3.11049C69.8641 2.13939 70.6612 1.37776 71.674 0.826591C72.6876 0.276083 73.8221 0 75.0778 0C76.097 0 77.0273 0.177647 77.8685 0.533274C78.7097 0.888569 79.4206 1.40461 80.0013 2.0794L78.5085 3.48401C77.6077 2.51225 76.4997 2.02671 75.1849 2.02671C74.3315 2.02671 73.5669 2.2133 72.8917 2.58616C72.2166 2.95969 71.689 3.47838 71.3098 4.14157C70.9303 4.8051 70.7411 5.55778 70.7411 6.39895C70.7411 7.24013 70.9303 7.99281 71.3098 8.65633C71.689 9.31953 72.2166 9.83822 72.8917 10.2111C73.5669 10.5849 74.3315 10.7712 75.1849 10.7712C76.4997 10.7712 77.6077 10.28 78.5085 9.29567L80.0013 10.7178C79.4206 11.3933 78.7067 11.9087 77.8596 12.264C77.0121 12.6196 76.0794 12.7972 75.0606 12.7972C73.8038 12.7972 72.6697 12.5218 71.6565 11.9707Z" fill="#101010"/>
<path d="M1.52588e-05 18.822H80V20.6717H1.52588e-05V18.822Z" fill="white"/>
<path d="M49.3428 33.8925C49.3428 39.0522 45.1598 43.2352 40 43.2352C34.8403 43.2352 30.6573 39.0522 30.6573 33.8925C30.6573 28.7328 34.8403 24.5498 40 24.5498C45.1598 24.5498 49.3428 28.7328 49.3428 33.8925Z" fill="white"/>
</svg>
