<svg width="41" height="41" viewBox="0 0 41 41" fill="none" xmlns="http://www.w3.org/2000/svg">
<path d="M20.7998 0.100098C9.80565 0.100098 0.799805 8.98899 0.799805 20.1001C0.799805 31.0942 9.68869 40.1001 20.7998 40.1001C31.794 40.1001 40.7998 31.2112 40.7998 20.1001C40.7998 8.98899 31.794 0.100098 20.7998 0.100098ZM20.7998 38.4627C10.6244 38.4627 2.43722 30.2755 2.43722 20.1001C2.43722 9.92466 10.6244 1.73753 20.7998 1.73753C30.9752 1.73753 39.1624 9.92466 39.1624 20.1001C39.2793 30.1586 30.9752 38.4627 20.7998 38.4627Z" fill="white"/>
<path d="M20.7998 34.9539C21.5016 34.9539 21.8525 34.486 21.9694 33.9012C22.0864 34.1352 22.3203 34.3691 22.5542 34.486C22.7881 34.486 23.139 34.486 23.3729 34.3691C23.6068 34.2521 23.8408 34.0182 23.9577 33.7843C24.0747 33.5504 24.0747 33.1995 23.9577 32.9656C24.3086 33.4334 24.7764 33.5504 25.3612 33.3164C26.063 32.9656 26.2969 32.4977 25.946 31.796C25.1273 29.8077 24.3086 27.9363 23.4899 25.948C23.3729 25.7141 23.3729 25.5971 23.256 25.3632C23.139 25.2463 23.139 25.1293 23.022 25.0123C23.022 24.8954 22.9051 24.8954 22.7881 24.7784C24.0747 24.8954 24.6595 25.3632 25.0103 25.5971C25.1273 25.7141 25.1273 25.7141 25.4782 25.5971C25.5951 25.5971 25.8291 25.5971 25.946 25.5971C26.063 25.7141 26.2969 25.8311 26.4139 25.8311C26.8817 26.1819 27.3495 26.5328 27.8174 26.8837C28.0513 27.1176 28.2852 27.3515 28.2852 27.7024C28.2852 27.9363 27.5834 28.5211 27.4665 28.755C26.9986 29.2229 27.7004 29.9246 28.6361 29.9246C28.4022 29.6907 28.2852 29.4568 28.4022 29.2229C28.5191 29.2229 28.6361 29.2229 28.87 29.1059C29.1039 28.989 28.987 28.4042 29.1039 28.2872C29.4548 27.9363 30.3905 27.9363 31.0922 27.9363C31.3261 27.9363 31.677 27.8194 31.5601 27.4685C31.9109 27.4685 32.0279 27.8194 32.0279 28.0533C32.3788 27.8194 32.6127 27.0007 31.4431 26.7667C31.677 26.5328 32.0279 26.5328 32.2618 26.7667C32.4957 26.4159 31.9109 25.8311 30.9753 26.1819C30.9753 26.1819 30.5074 25.5971 29.3378 27.0006C29.2209 26.8837 28.987 26.7667 28.87 26.6498C28.4022 26.1819 27.2326 25.0123 27.2326 25.0123C27.2326 24.3106 27.1156 23.024 26.2969 22.3223C25.946 21.9714 25.5951 21.8544 24.7764 21.6205C24.7764 21.6205 25.1273 21.0357 25.2443 20.8018C25.946 21.5036 27.3495 21.7375 27.3495 20.5679C28.5191 21.7375 29.5718 21.0357 29.5718 20.334C29.5718 20.6849 29.6887 21.0357 29.8057 21.3866C29.9226 21.7375 30.5074 23.258 31.794 23.258C31.794 23.7258 31.794 25.4802 33.4314 25.8311C33.5484 25.8311 33.5484 25.8311 33.6653 25.948C34.3671 26.7667 37.0571 27.5854 37.291 27.3515C37.0571 27.2346 36.7063 27.0007 36.7063 26.065C36.7063 25.4802 36.5893 22.2053 36.5893 17.6439C36.5893 16.0065 36.4723 10.7433 31.2092 10.0416C30.3905 9.92462 29.6887 10.0416 28.987 10.5094C28.0513 11.2112 27.5834 12.3808 28.1682 13.6673V13.7843C28.4022 14.1352 28.2852 14.3691 28.0513 14.603C27.5834 15.0708 27.1156 15.3047 26.5308 15.4217C26.1799 15.4217 25.8291 15.3047 25.5951 15.0708C25.0103 14.486 24.6595 13.7843 24.4256 12.9656C24.1916 11.4451 24.5425 10.6264 24.5425 10.5094C25.0103 9.6907 25.8291 8.98895 26.8817 8.98895C27.3495 8.05327 28.753 8.40415 28.753 8.40415C29.1039 8.52111 29.2209 8.52111 29.3378 8.75503C29.3378 8.75503 29.9226 7.81936 29.3378 7.46848C28.753 7.11761 27.4665 7.00065 27.4665 7.00065C27.4665 6.41585 26.5308 5.94802 24.6595 6.29889C22.5542 6.64977 22.0864 5.83105 22.0864 5.83105C21.9694 6.88369 22.7881 7.35152 23.022 7.58544C22.2033 8.52111 21.0337 10.2755 20.7998 12.7316C20.5659 10.2755 19.3963 8.52111 18.5776 7.58544C18.8115 7.46848 19.6302 6.88369 19.5133 5.83105C19.5133 5.83105 19.0454 6.64977 16.9402 6.29889C15.1858 5.94802 14.1331 6.41585 14.1331 7.00065C14.1331 7.00065 12.8466 7.11761 12.2618 7.46848C11.677 7.81936 12.2618 8.75503 12.2618 8.75503C12.3788 8.63807 12.4957 8.52111 12.8466 8.40415C12.8466 8.40415 14.2501 8.05327 14.7179 8.98895C15.7706 9.10591 16.5893 9.6907 17.0571 10.5094C17.0571 10.5094 17.525 11.3281 17.1741 12.9656C17.0571 13.7843 16.5893 14.486 16.0045 15.0708C15.7706 15.3047 15.4197 15.5387 15.0688 15.4217C14.484 15.3047 14.0162 15.0708 13.5484 14.603C13.3144 14.3691 13.1975 14.1352 13.4314 13.7843V13.6673C14.0162 12.3808 13.5484 11.2112 12.6127 10.5094C11.9109 10.0416 11.2092 9.92462 10.3905 10.0416C5.24426 10.7433 5.01035 16.0065 5.01035 17.6439C5.01035 22.2053 4.89339 25.4802 4.89339 26.065C4.89339 27.0007 4.54251 27.2346 4.30859 27.3515C4.65947 27.5854 7.34953 26.7667 7.93432 25.948C7.93432 25.948 8.05128 25.8311 8.16824 25.8311C9.80567 25.4802 9.80567 23.7258 9.80567 23.258C11.0922 23.258 11.677 21.7375 11.794 21.3866C11.9109 21.0357 12.0279 20.6849 12.0279 20.334C12.0279 21.0357 13.0805 21.6205 14.2501 20.5679C14.2501 21.7375 15.6536 21.5036 16.3554 20.8018C16.4723 21.0357 16.8232 21.6205 16.8232 21.6205C16.0045 21.7375 15.6536 21.9714 15.3027 22.3223C14.3671 23.141 14.3671 24.4276 14.3671 25.0123C14.3671 25.0123 13.1975 26.1819 12.7296 26.6498C12.6127 26.7667 12.3788 26.8837 12.2618 27.0006C10.9753 25.5971 10.6244 26.1819 10.6244 26.1819C9.6887 25.8311 9.22087 26.4159 9.33783 26.7667C9.57175 26.5328 9.92263 26.6498 10.1565 26.7667C8.87 27.0007 9.22088 27.9363 9.57175 28.0533C9.57175 27.8194 9.6887 27.4685 10.0396 27.4685C10.0396 27.8194 10.2735 27.9363 10.5074 27.9363C11.0922 27.9363 12.1449 27.9363 12.4957 28.2872C12.7296 28.4042 12.6127 28.989 12.7296 29.1059C12.8466 29.2229 13.0805 29.2229 13.1975 29.2229C13.1975 29.4568 13.1975 29.5737 12.9636 29.9246C13.8992 30.0416 14.484 29.2229 14.1331 28.755C13.8992 28.5211 13.3144 27.9363 13.3144 27.7024C13.3144 27.4685 13.5484 27.1176 13.7823 26.8837C14.2501 26.5328 14.7179 26.1819 15.1858 25.8311C15.3027 25.7141 15.4197 25.5971 15.6536 25.5971C15.7706 25.4802 16.0045 25.4802 16.1215 25.5971C16.4723 25.7141 16.4723 25.7141 16.5893 25.5971C16.9402 25.3632 17.525 24.8954 18.8115 24.7784C18.6946 24.7784 18.6946 24.8954 18.5776 25.0123C18.4606 25.1293 18.4606 25.2463 18.3437 25.3632C18.2267 25.4802 18.2267 25.7141 18.1098 25.948C17.291 27.9363 16.4723 29.8077 15.6536 31.796C15.4197 32.4977 15.6536 32.9656 16.2384 33.3164C16.7063 33.5504 17.291 33.4334 17.6419 32.9656C17.525 33.3164 17.525 33.5504 17.6419 33.7843C17.7589 34.0182 17.9928 34.2521 18.2267 34.3691C18.4606 34.486 18.8115 34.486 19.0454 34.486C19.3963 34.3691 19.5133 34.2521 19.6302 33.9012C19.7472 34.486 20.0981 34.9539 20.7998 34.9539Z" fill="white"/>
</svg>
