<svg width="41" height="41" viewBox="0 0 41 41" fill="none" xmlns="http://www.w3.org/2000/svg">
<path d="M20.8008 0.100098C9.80663 0.100098 0.800781 8.98899 0.800781 20.1001C0.800781 31.0942 9.68967 40.1001 20.8008 40.1001C31.7949 40.1001 40.8008 31.2112 40.8008 20.1001C40.8008 8.98899 31.7949 0.100098 20.8008 0.100098ZM20.8008 38.4627C10.6253 38.4627 2.4382 30.2755 2.4382 20.1001C2.4382 9.92466 10.6253 1.73753 20.8008 1.73753C30.9762 1.73753 39.1634 9.92466 39.1634 20.1001C39.2803 30.1586 30.9762 38.4627 20.8008 38.4627Z" fill="#BFC5CC"/>
<path d="M20.8008 34.9539C21.5026 34.9539 21.8534 34.486 21.9704 33.9012C22.0873 34.1352 22.3213 34.3691 22.5552 34.486C22.7891 34.486 23.14 34.486 23.3739 34.3691C23.6078 34.2521 23.8417 34.0182 23.9587 33.7843C24.0756 33.5504 24.0756 33.1995 23.9587 32.9656C24.3096 33.4334 24.7774 33.5504 25.3622 33.3164C26.064 32.9656 26.2979 32.4977 25.947 31.796C25.1283 29.8077 24.3096 27.9363 23.4909 25.948C23.3739 25.7141 23.3739 25.5971 23.2569 25.3632C23.14 25.2463 23.14 25.1293 23.023 25.0123C23.023 24.8954 22.9061 24.8954 22.7891 24.7784C24.0756 24.8954 24.6604 25.3632 25.0113 25.5971C25.1283 25.7141 25.1283 25.7141 25.4792 25.5971C25.5961 25.5971 25.83 25.5971 25.947 25.5971C26.064 25.7141 26.2979 25.8311 26.4148 25.8311C26.8827 26.1819 27.3505 26.5328 27.8183 26.8837C28.0523 27.1176 28.2862 27.3515 28.2862 27.7024C28.2862 27.9363 27.5844 28.5211 27.4675 28.755C26.9996 29.2229 27.7014 29.9246 28.6371 29.9246C28.4031 29.6907 28.2862 29.4568 28.4031 29.2229C28.5201 29.2229 28.6371 29.2229 28.871 29.1059C29.1049 28.989 28.9879 28.4042 29.1049 28.2872C29.4558 27.9363 30.3914 27.9363 31.0932 27.9363C31.3271 27.9363 31.678 27.8194 31.561 27.4685C31.9119 27.4685 32.0289 27.8194 32.0289 28.0533C32.3797 27.8194 32.6137 27.0007 31.4441 26.7667C31.678 26.5328 32.0289 26.5328 32.2628 26.7667C32.4967 26.4159 31.9119 25.8311 30.9762 26.1819C30.9762 26.1819 30.5084 25.5971 29.3388 27.0006C29.2218 26.8837 28.9879 26.7667 28.871 26.6498C28.4031 26.1819 27.2335 25.0123 27.2335 25.0123C27.2335 24.3106 27.1166 23.024 26.2979 22.3223C25.947 21.9714 25.5961 21.8544 24.7774 21.6205C24.7774 21.6205 25.1283 21.0357 25.2452 20.8018C25.947 21.5036 27.3505 21.7375 27.3505 20.5679C28.5201 21.7375 29.5727 21.0357 29.5727 20.334C29.5727 20.6849 29.6897 21.0357 29.8066 21.3866C29.9236 21.7375 30.5084 23.258 31.795 23.258C31.795 23.7258 31.7949 25.4802 33.4324 25.8311C33.5493 25.8311 33.5493 25.8311 33.6663 25.948C34.3681 26.7667 37.0581 27.5854 37.292 27.3515C37.0581 27.2346 36.7072 27.0007 36.7072 26.065C36.7072 25.4802 36.5903 22.2053 36.5903 17.6439C36.5903 16.0065 36.4733 10.7433 31.2102 10.0416C30.3914 9.92462 29.6897 10.0416 28.9879 10.5094C28.0523 11.2112 27.5844 12.3808 28.1692 13.6673V13.7843C28.4031 14.1352 28.2862 14.3691 28.0523 14.603C27.5844 15.0708 27.1166 15.3047 26.5318 15.4217C26.1809 15.4217 25.83 15.3047 25.5961 15.0708C25.0113 14.486 24.6604 13.7843 24.4265 12.9656C24.1926 11.4451 24.5435 10.6264 24.5435 10.5094C25.0113 9.6907 25.83 8.98895 26.8827 8.98895C27.3505 8.05327 28.754 8.40415 28.754 8.40415C29.1049 8.52111 29.2218 8.52111 29.3388 8.75503C29.3388 8.75503 29.9236 7.81936 29.3388 7.46848C28.754 7.11761 27.4675 7.00065 27.4675 7.00065C27.4675 6.41585 26.5318 5.94802 24.6604 6.29889C22.5552 6.64977 22.0873 5.83105 22.0873 5.83105C21.9704 6.88369 22.7891 7.35152 23.023 7.58544C22.2043 8.52111 21.0347 10.2755 20.8008 12.7316C20.5669 10.2755 19.3973 8.52111 18.5786 7.58544C18.8125 7.46848 19.6312 6.88369 19.5143 5.83105C19.5143 5.83105 19.0464 6.64977 16.9411 6.29889C15.1868 5.94802 14.1341 6.41585 14.1341 7.00065C14.1341 7.00065 12.8476 7.11761 12.2628 7.46848C11.678 7.81936 12.2628 8.75503 12.2628 8.75503C12.3797 8.63807 12.4967 8.52111 12.8476 8.40415C12.8476 8.40415 14.2511 8.05327 14.7189 8.98895C15.7716 9.10591 16.5903 9.6907 17.0581 10.5094C17.0581 10.5094 17.5259 11.3281 17.1751 12.9656C17.0581 13.7843 16.5903 14.486 16.0055 15.0708C15.7716 15.3047 15.4207 15.5387 15.0698 15.4217C14.485 15.3047 14.0172 15.0708 13.5493 14.603C13.3154 14.3691 13.1985 14.1352 13.4324 13.7843V13.6673C14.0172 12.3808 13.5493 11.2112 12.6137 10.5094C11.9119 10.0416 11.2102 9.92462 10.3914 10.0416C5.24524 10.7433 5.01132 16.0065 5.01132 17.6439C5.01132 22.2053 4.89437 25.4802 4.89437 26.065C4.89437 27.0007 4.54349 27.2346 4.30957 27.3515C4.66045 27.5854 7.3505 26.7667 7.9353 25.948C7.9353 25.948 8.05226 25.8311 8.16921 25.8311C9.80664 25.4802 9.80664 23.7258 9.80664 23.258C11.0932 23.258 11.678 21.7375 11.7949 21.3866C11.9119 21.0357 12.0289 20.6849 12.0289 20.334C12.0289 21.0357 13.0815 21.6205 14.2511 20.5679C14.2511 21.7375 15.6546 21.5036 16.3564 20.8018C16.4733 21.0357 16.8242 21.6205 16.8242 21.6205C16.0055 21.7375 15.6546 21.9714 15.3037 22.3223C14.368 23.141 14.368 24.4276 14.368 25.0123C14.368 25.0123 13.1985 26.1819 12.7306 26.6498C12.6137 26.7667 12.3797 26.8837 12.2628 27.0006C10.9762 25.5971 10.6254 26.1819 10.6254 26.1819C9.68968 25.8311 9.22185 26.4159 9.33881 26.7667C9.57272 26.5328 9.92361 26.6498 10.1575 26.7667C8.87097 27.0007 9.22185 27.9363 9.57273 28.0533C9.57273 27.8194 9.68968 27.4685 10.0406 27.4685C10.0406 27.8194 10.2745 27.9363 10.5084 27.9363C11.0932 27.9363 12.1458 27.9363 12.4967 28.2872C12.7306 28.4042 12.6137 28.989 12.7306 29.1059C12.8476 29.2229 13.0815 29.2229 13.1985 29.2229C13.1985 29.4568 13.1985 29.5737 12.9645 29.9246C13.9002 30.0416 14.485 29.2229 14.1341 28.755C13.9002 28.5211 13.3154 27.9363 13.3154 27.7024C13.3154 27.4685 13.5493 27.1176 13.7833 26.8837C14.2511 26.5328 14.7189 26.1819 15.1868 25.8311C15.3037 25.7141 15.4207 25.5971 15.6546 25.5971C15.7716 25.4802 16.0055 25.4802 16.1224 25.5971C16.4733 25.7141 16.4733 25.7141 16.5903 25.5971C16.9412 25.3632 17.5259 24.8954 18.8125 24.7784C18.6955 24.7784 18.6955 24.8954 18.5786 25.0123C18.4616 25.1293 18.4616 25.2463 18.3447 25.3632C18.2277 25.4802 18.2277 25.7141 18.1107 25.948C17.292 27.9363 16.4733 29.8077 15.6546 31.796C15.4207 32.4977 15.6546 32.9656 16.2394 33.3164C16.7072 33.5504 17.292 33.4334 17.6429 32.9656C17.5259 33.3164 17.5259 33.5504 17.6429 33.7843C17.7599 34.0182 17.9938 34.2521 18.2277 34.3691C18.4616 34.486 18.8125 34.486 19.0464 34.486C19.3973 34.3691 19.5142 34.2521 19.6312 33.9012C19.7482 34.486 20.099 34.9539 20.8008 34.9539Z" fill="#BFC5CC"/>
</svg>
