<svg width="30" height="30" viewBox="0 0 30 30" fill="none" xmlns="http://www.w3.org/2000/svg">
<g clip-path="url(#clip0_7_668)">
<path d="M15 10.3125V7.5" stroke="white" stroke-width="2" stroke-linecap="round" stroke-linejoin="round"/>
<path d="M15 7.5C20.4141 5.625 15 0.9375 15 0.9375C15 0.9375 9.375 5.625 15 7.5Z" stroke="white" stroke-width="2" stroke-linecap="round" stroke-linejoin="round"/>
<path d="M18.9844 14.7656C18.9844 15.8223 18.5646 16.8358 17.8174 17.583C17.0702 18.3302 16.0567 18.75 15 18.75C13.9433 18.75 12.9298 18.3302 12.1826 17.583C11.4354 16.8358 11.0156 15.8223 11.0156 14.7656" stroke="white" stroke-width="2" stroke-linecap="round" stroke-linejoin="round"/>
<path d="M11.0157 14.7656C11.0159 15.8083 10.6074 16.8095 9.8778 17.5544C9.14824 18.2993 8.15575 18.7286 7.11331 18.75C4.87502 18.7969 3.0469 16.9219 3.0469 14.6836V13.125C3.04535 12.7552 3.11704 12.3888 3.25783 12.0469C3.39862 11.705 3.60573 11.3943 3.8672 11.1328C4.12868 10.8714 4.43934 10.6642 4.78127 10.5235C5.1232 10.3827 5.48962 10.311 5.8594 10.3125H24.1407C24.5104 10.311 24.8769 10.3827 25.2188 10.5235C25.5607 10.6642 25.8714 10.8714 26.1328 11.1328C26.3943 11.3943 26.6014 11.705 26.7422 12.0469C26.883 12.3888 26.9547 12.7552 26.9532 13.125V14.6836C26.9532 16.9219 25.125 18.7969 22.8867 18.75C21.8443 18.7286 20.8518 18.2993 20.1222 17.5544C19.3927 16.8095 18.9842 15.8083 18.9844 14.7656" stroke="white" stroke-width="2" stroke-linecap="round" stroke-linejoin="round"/>
<path d="M25.3125 17.9648V24.375C25.3125 24.6236 25.2137 24.8621 25.0379 25.0379C24.8621 25.2137 24.6236 25.3125 24.375 25.3125H5.625C5.37636 25.3125 5.1379 25.2137 4.96209 25.0379C4.78627 24.8621 4.6875 24.6236 4.6875 24.375V17.9648" stroke="white" stroke-width="2" stroke-linecap="round" stroke-linejoin="round"/>
</g>
<defs>
<clipPath id="clip0_7_668">
<rect width="30" height="30" fill="white"/>
</clipPath>
</defs>
</svg>
