<svg width="30" height="30" viewBox="0 0 30 30" fill="none" xmlns="http://www.w3.org/2000/svg">
<path d="M5.28499 22.9687C5.31498 23.092 5.36936 23.208 5.44493 23.3098C5.5205 23.4117 5.61571 23.4974 5.72496 23.5619C5.8342 23.6263 5.95525 23.6682 6.08096 23.6851C6.20667 23.702 6.33449 23.6935 6.45687 23.6601C12.0432 22.1134 17.9448 22.1134 23.5311 23.6601C23.6535 23.6935 23.7813 23.702 23.907 23.6851C24.0327 23.6682 24.1538 23.6263 24.263 23.5619C24.3722 23.4974 24.4675 23.4117 24.543 23.3098C24.6186 23.208 24.673 23.092 24.703 22.9687L27.6912 10.2773C27.7323 10.1075 27.725 9.9295 27.6703 9.76354C27.6155 9.59757 27.5155 9.45021 27.3814 9.3381C27.2473 9.22598 27.0846 9.15356 26.9116 9.12902C26.7386 9.10448 26.5621 9.12879 26.4022 9.19921L20.4725 11.8359C20.2576 11.9305 20.0154 11.9422 19.7924 11.8686C19.5695 11.795 19.3818 11.6414 19.2655 11.4375L15.8201 5.22655C15.7391 5.08002 15.6202 4.95788 15.476 4.87283C15.3317 4.78778 15.1673 4.74292 14.9998 4.74292C14.8324 4.74292 14.668 4.78778 14.5237 4.87283C14.3794 4.95788 14.2606 5.08002 14.1795 5.22655L10.7342 11.4375C10.6179 11.6414 10.4302 11.795 10.2072 11.8686C9.98431 11.9422 9.74203 11.9305 9.52718 11.8359L3.59749 9.19921C3.43755 9.12879 3.2611 9.10448 3.08808 9.12902C2.91505 9.15356 2.75232 9.22598 2.61827 9.3381C2.48421 9.45021 2.38417 9.59757 2.32942 9.76354C2.27467 9.9295 2.2674 10.1075 2.30843 10.2773L5.28499 22.9687Z" stroke="white" stroke-width="2" stroke-linecap="round" stroke-linejoin="round"/>
</svg>
