<svg width="24" height="24" viewBox="0 0 24 24" fill="none" xmlns="http://www.w3.org/2000/svg">
<path d="M20.5779 11.3439L4.74353 2.47511C4.61015 2.40143 4.45749 2.37012 4.30588 2.38535C4.15426 2.40058 4.01089 2.46164 3.89483 2.56039C3.77878 2.65913 3.69556 2.79089 3.65625 2.93811C3.61694 3.08533 3.6234 3.24103 3.67478 3.38449L6.65603 11.747C6.72171 11.9093 6.72171 12.0909 6.65603 12.2532L3.67478 20.6157C3.6234 20.7592 3.61694 20.9149 3.65625 21.0621C3.69556 21.2093 3.77878 21.3411 3.89483 21.4398C4.01089 21.5386 4.15426 21.5996 4.30588 21.6149C4.45749 21.6301 4.61015 21.5988 4.74353 21.5251L20.5779 12.6564C20.6951 12.5915 20.7928 12.4964 20.8609 12.381C20.9289 12.2656 20.9648 12.1341 20.9648 12.0001C20.9648 11.8661 20.9289 11.7346 20.8609 11.6192C20.7928 11.5038 20.6951 11.4087 20.5779 11.3439V11.3439Z" stroke="#E97772" stroke-linecap="round" stroke-linejoin="round"/>
<path d="M6.75 12H12.75" stroke="#E97772" stroke-linecap="round" stroke-linejoin="round"/>
</svg>
